<?xml version="1.0" standalone="no"?><!DOCTYPE svg PUBLIC "-//W3C//DTD SVG 1.1//EN" "http://www.w3.org/Graphics/SVG/1.1/DTD/svg11.dtd"><svg t="1509420408949" class="icon" style="" viewBox="0 0 1024 1024" version="1.1" xmlns="http://www.w3.org/2000/svg" p-id="1002" xmlns:xlink="http://www.w3.org/1999/xlink" width="200" height="200"><defs><style type="text/css"></style></defs><path d="M745.866537 817.092354 787.142461 817.092354C811.025686 817.092354 830.379496 802.96311 830.379496 785.554764 830.379496 768.146422 811.006249 754.017173 787.142461 754.017173L745.866537 754.017173C722.002754 754.017173 702.629508 768.146422 702.629508 785.554764 702.629508 802.96311 722.002754 817.092354 745.866537 817.092354L745.866537 817.092354ZM745.866537 627.869067 787.142461 627.869067C811.025686 627.869067 830.379496 613.739822 830.379496 596.331476 830.379496 578.92313 811.006249 564.793885 787.142461 564.793885L745.866537 564.793885C722.002754 564.793885 702.629508 578.92313 702.629508 596.331476 702.629508 613.739822 722.002754 627.869067 745.866537 627.869067L745.866537 627.869067ZM490.371135 627.869067 531.634483 627.869067C555.505128 627.869067 574.878374 613.739822 574.878374 596.331476 574.878374 578.92313 555.505128 564.793885 531.634483 564.793885L490.371135 564.793885C466.494771 564.793885 447.127245 578.92313 447.127245 596.331476 447.127245 613.739822 466.494771 627.869067 490.371135 627.869067L490.371135 627.869067ZM234.870018 627.869067 276.133361 627.869067C300.009726 627.869067 319.377257 613.739822 319.377257 596.331476 319.377257 578.92313 300.00973 564.793885 276.133361 564.793885L234.870018 564.793885C210.999369 564.793885 191.626123 578.92313 191.626123 596.331476 191.626123 613.739822 210.999369 627.869067 234.870018 627.869067L234.870018 627.869067ZM490.371135 817.092354 531.634483 817.092354C555.505128 817.092354 574.878374 802.96311 574.878374 785.554764 574.878374 768.146422 555.505128 754.017173 531.634483 754.017173L490.371135 754.017173C466.494771 754.017173 447.127245 768.146422 447.127245 785.554764 447.127245 802.96311 466.494771 817.092354 490.371135 817.092354L490.371135 817.092354ZM234.870018 817.092354 276.133361 817.092354C300.009726 817.092354 319.377257 802.96311 319.377257 785.554764 319.377257 768.146422 300.00973 754.017173 276.133361 754.017173L234.870018 754.017173C210.999369 754.017173 191.626123 768.146422 191.626123 785.554764 191.626123 802.96311 210.999369 817.092354 234.870018 817.092354L234.870018 817.092354ZM833.900344 123.27325 769.439876 123.27325 769.439876 33.544119C769.513058 32.682564 769.558801 31.814237 769.558801 30.934616 769.558801 13.850346 755.532581 0 738.231364 0 721.082231 0 707.158928 13.609833 706.915357 30.487469L706.903923 30.487469 706.903923 123.27325 318.35039 123.27325 318.35039 33.544119C318.423576 32.682564 318.469315 31.814237 318.469315 30.934616 318.469315 13.850346 304.443095 0 287.141878 0 269.992745 0 256.069442 13.609833 255.825876 30.487469L255.814437 30.487469 255.814437 123.27325 188.157879 123.27325C84.391741 123.27325 0 195.110756 0 330.743857L0 818.54898C0 916.080645 74.8938 996.469321 170.298631 1005.476674L833.900344 1006.315647C937.608158 1006.315647 1022.006764 922.06748 1022.006764 818.524136L1022.006764 311.013947C1022.006764 207.489799 937.633314 123.27325 833.900344 123.27325L833.900344 123.27325ZM958.131771 837.054874C958.131771 895.594199 906.661508 943.240465 843.405151 943.240465L178.659933 943.240465C115.3727 943.240465 63.87614 895.594199 63.87614 837.054874L63.87614 438.644648 958.131771 438.644648 958.131771 837.054874 958.131771 837.054874ZM958.131771 292.508053 958.131771 375.570593 63.874994 375.570593 63.874994 292.532897C63.874994 240.512244 110.184624 186.347305 191.626128 186.347305L255.814441 186.347305 255.814441 281.021055 255.843026 281.021055C256.43422 297.592686 270.215729 310.850219 287.141878 310.850219 304.443095 310.850219 318.469315 296.999873 318.469315 279.915603 318.469315 279.035982 318.423576 278.166523 318.35039 277.3061L318.35039 186.347305 706.905068 186.347305 706.905068 281.021055 706.933658 281.021055C707.524847 297.592686 721.306361 310.850219 738.232505 310.850219 755.533722 310.850219 769.559942 296.999877 769.559942 279.915603 769.559942 279.035982 769.514203 278.166523 769.441022 277.3061L769.441022 186.347305 830.381783 186.347305C893.635852 186.347305 963.682338 232.429675 958.131771 292.508053L958.131771 292.508053Z" p-id="1003"></path></svg>