<?xml version="1.0" standalone="no"?><!DOCTYPE svg PUBLIC "-//W3C//DTD SVG 1.1//EN" "http://www.w3.org/Graphics/SVG/1.1/DTD/svg11.dtd"><svg t="1508326889631" class="icon" style="" viewBox="0 0 1024 1024" version="1.1" xmlns="http://www.w3.org/2000/svg" p-id="6763" xmlns:xlink="http://www.w3.org/1999/xlink" width="200" height="200"><defs><style type="text/css"></style></defs><path d="M254.882 843.437l368.95-331.294-373.763-335.64c-12.208-11.379-19.742-26.847-19.742-43.909 0-34.903 31.539-63.223 70.418-63.222 18.984 0 36.207 6.776 48.874 17.729l0.025-0.008 422.477 379.405c13.287 11.516 21.553 27.628 21.552 45.519 0 0.033 0 0.081 0 0.129 0 0.057 0 0.096 0 0.146 0 17.881-8.265 33.994-21.552 45.486l0.032 0.025-422.694 379.233c-12.651 10.889-29.801 17.601-48.713 17.601-38.878 0-70.418-28.304-70.418-63.231 0-19.187 9.529-36.359 24.554-47.965z" fill="#7f7f7f" p-id="6764"></path></svg>