<?xml version="1.0" standalone="no"?><!DOCTYPE svg PUBLIC "-//W3C//DTD SVG 1.1//EN" "http://www.w3.org/Graphics/SVG/1.1/DTD/svg11.dtd"><svg t="1509351751656" class="icon" style="" viewBox="0 0 1024 1024" version="1.1" xmlns="http://www.w3.org/2000/svg" p-id="45608" xmlns:xlink="http://www.w3.org/1999/xlink" width="128" height="128"><defs><style type="text/css"></style></defs><path d="M916.812 606.57c-32.279-120.502-101.411-213.532-209.487-276.798-12.419-7.269-25.549-13.328-38.367-19.957 0.083-0.189 0.142-0.593 0.375-0.816 2.155-2.077 4.354-4.109 6.518-6.176 22.243-21.259 42.213-45.851 52.651-74.862 5.059-14.065 6.309-20.186 9.82-33.244 6.537-41.23-0.976-66.298-25.475-87.133-33.108-28.161-70.672-31.495-110.354-14.964-2.753 1.147-4.58 1.983-7.323-0.614-51.074-48.315-133.069-48.765-184.495-1.061-2.403 2.229-4.134 2.791-7.252 1.355-20.869-9.604-42.679-11.661-65.069-7.031-42.427 8.772-77.522 44.876-71.295 94.185 5.404 42.782 21.979 79.803 50.557 111.714 5.866 6.55 12.1 12.771 18.412 19.401-1.573 0.763-3.131 1.559-4.717 2.287-145.974 66.772-244.579 211.856-256.125 376.883-3.193 45.634-0.525 90.818 10.93 135.568 18.042 70.487 80.028 123.296 154.451 123.124 175.382-0.405 350.77 0.041 526.153-0.229 56.341-0.087 99.718-25.382 131.187-71.445 15.996-23.414 23.476-50.005 27.833-77.859 10.128-64.784 8.029-129.012-8.93-192.324zM880.805 767.695c-3.773 25.373-7.852 51.979-21.706 73.308-27.253 41.957-79.467 65.002-128.263 65.079-151.895 0.246-303.792-0.16-455.686 0.208-64.458 0.156-125.251-36.869-140.876-101.076-9.92-40.763-8.848-91.758-6.082-133.327 10.001-150.324 141.745-292.082 268.17-352.906 1.376-0.661-36.438-34.884-41.519-40.851-24.751-29.069-40.208-52.607-44.886-91.577-5.746-47.843 28.911-61.962 49.884-66.522 19.391-4.218 60.554 17.136 62.636 15.105 44.54-43.453 115.551-43.042 159.786 0.967 2.377 2.366 3.957 1.603 6.342 0.559 34.368-15.058 63.43-24.342 92.105 1.311 21.218 18.981 21.713 33.082 16.51 62.885-3.163 12.369-22.787 45.439-30.278 55.686-27.69 37.868-54.791 62.033-56.659 63.922-0.202 0.204 59.184 28.981 69.113 36.79 91.671 72.1 153.475 127.866 181.431 237.631 14.689 57.668 28.756 113.789 19.982 172.802zM502.797 507.711l-51.945-57.57c-7.214-7.995-12.266-13.994-15.15-17.99-5.771-5.597-13.346-10.194-22.725-13.793-9.379-3.599-17.315-1.399-23.808 6.597-5.771 8.795-7.214 17.391-4.33 25.788 2.886 8.396 6.132 14.992 9.74 19.79l16.234 16.791c7.936 9.595 16.592 19.989 25.972 31.184 10.821 12.795 22.725 26.386 35.713 40.779l-1.081 25.188h-73.588c-6.493 0-12.084 2.799-16.773 8.396s-7.034 11.595-7.034 17.99c0 6.397 2.165 11.995 6.493 16.791s10.101 7.197 17.315 7.197h73.588v41.98h-73.588c-6.493 0-12.084 2.199-16.773 6.597-4.69 4.399-7.034 10.194-7.034 17.391-0.722 6.397 1.263 11.794 5.953 16.192 4.69 4.399 10.643 6.597 17.856 6.597h73.588v23.988c0.722 11.195 3.967 18.99 9.74 23.388s12.987 6.597 21.644 6.597c8.657 0.8 15.691-2.199 21.102-8.995 5.411-6.797 8.116-13.793 8.116-20.99v-23.991h75.754c7.214 0 13.166-1.799 17.856-5.396s6.674-9.394 5.953-17.391c0-16.791-10.101-25.188-30.303-25.188h-69.26l1.081-40.779 70.342-1.2c10.101 0.8 17.315-1.399 21.644-6.597s6.493-11.395 6.493-18.59c0-6.397-2.345-12.195-7.034-17.391s-12.084-7.795-22.185-7.795h-70.342v-22.789c12.266-12.794 23.447-25.188 33.549-37.182 8.657-9.595 17.315-19.39 25.972-29.385 8.657-9.996 15.15-16.992 19.479-20.99 16.592-15.991 20.202-29.985 10.821-41.98-5.050-7.197-11.543-10.796-19.479-10.796s-15.15 3.198-21.644 9.595c-3.607 3.198-9.74 8.995-18.398 17.391-8.657 8.396-17.315 16.992-25.972 25.788-10.103 10.396-21.284 21.991-33.551 34.785v0z" p-id="45609"></path></svg>