<?xml version="1.0" standalone="no"?><!DOCTYPE svg PUBLIC "-//W3C//DTD SVG 1.1//EN" "http://www.w3.org/Graphics/SVG/1.1/DTD/svg11.dtd"><svg t="1509351259764" class="icon" style="" viewBox="0 0 1024 1024" version="1.1" xmlns="http://www.w3.org/2000/svg" p-id="22720" xmlns:xlink="http://www.w3.org/1999/xlink" width="128" height="128"><defs><style type="text/css"></style></defs><path d="M888.514259 742.334969 888.514259 742.334969c-12.409634 12.409634-32.715099 12.409634-45.124733 0l-90.248444-90.248444c-12.409634-12.409634-12.409634-32.715099 0-45.124733l0 0c12.409634-12.409634 32.715099-12.409634 45.124733 0l90.249467 90.248444C900.92287 709.61987 900.92287 729.925335 888.514259 742.334969z" p-id="22721"></path><path d="M935.280376 481.368352 935.280376 481.368352c0 17.549701-14.358009 31.907711-31.907711 31.907711L775.741823 513.276063c-17.549701 0-31.907711-14.358009-31.907711-31.907711l0 0c0-17.549701 14.358009-31.907711 31.907711-31.907711l127.630842 0C920.922367 449.460642 935.280376 463.818651 935.280376 481.368352z" p-id="22722"></path><path d="M753.141082 373.944737 753.141082 373.944737c12.409634 12.409634 32.715099 12.409634 45.124733 0l90.249467-90.248444c12.409634-12.409634 12.409634-32.715099 0-45.124733l0 0c-12.409634-12.409634-32.715099-12.409634-45.124733 0l-90.248444 90.248444C740.731448 341.229638 740.731448 361.535103 753.141082 373.944737z" p-id="22723"></path><path d="M623.036909 951.717743c-11.110035 0-22.583344-4.448312-32.720216-13.024641l-246.657726-208.682833c-13.453407-11.382235-15.132652-31.515784-3.750417-44.968168 11.382235-13.452383 31.515784-15.132652 44.968168-3.750417l216.285998 182.987614L601.162716 160.03281 407.043576 325.567937c-17.97335 15.326057-48.161906 26.450419-71.78186 26.450419L152.535045 352.018356l0 321.972039 87.490633 0c17.622356 0 31.907711 14.285355 31.907711 31.907711s-14.285355 31.907711-31.907711 31.907711l-90.391706 0c-33.589003 0-60.915371-27.325345-60.915371-60.914348L88.718601 349.117282c0-33.589003 27.326369-60.915371 60.915371-60.915371l185.626721 0c8.382924 0 23.99653-5.753027 30.375821-11.1919L590.295204 85.432765c15.430434-13.155624 33.994232-16.695241 49.662073-9.464559 15.666818 7.230682 25.02086 23.652699 25.02086 43.929512L664.978137 904.063397c0 20.249183-9.340739 36.671201-24.987091 43.928488C634.604362 950.489776 628.870778 951.717743 623.036909 951.717743z" p-id="22724"></path></svg>