<?xml version="1.0" standalone="no"?><!DOCTYPE svg PUBLIC "-//W3C//DTD SVG 1.1//EN" "http://www.w3.org/Graphics/SVG/1.1/DTD/svg11.dtd"><svg t="1509521512354" class="icon" style="" viewBox="0 0 1024 1024" version="1.1" xmlns="http://www.w3.org/2000/svg" p-id="6349" xmlns:xlink="http://www.w3.org/1999/xlink" width="200" height="200"><defs><style type="text/css"></style></defs><path d="M419.885 333.511l182.84 183.532-189.093 189.839 35.448 35.592 224.543-225.426-218.289-219.119-35.448 35.594zM517.336 79.749c-241.954 0-438.768 197.575-438.768 440.437s196.818 440.427 438.768 440.427c241.92 0 438.741-197.569 438.741-440.427 0-242.855-196.818-440.437-438.741-440.437zM517.336 910.298c-214.291 0-388.606-174.993-388.606-390.094s174.329-390.094 388.606-390.094c214.266 0 388.594 174.993 388.594 390.094s-174.328 390.094-388.594 390.094z" p-id="6350"></path></svg>