<?xml version="1.0" standalone="no"?><!DOCTYPE svg PUBLIC "-//W3C//DTD SVG 1.1//EN" "http://www.w3.org/Graphics/SVG/1.1/DTD/svg11.dtd"><svg t="1509521493915" class="icon" style="" viewBox="0 0 1024 1024" version="1.1" xmlns="http://www.w3.org/2000/svg" p-id="5697" xmlns:xlink="http://www.w3.org/1999/xlink" width="200" height="200"><defs><style type="text/css"></style></defs><path d="M514.2 153.6c197.6 1.2 357.4 163 356.2 360.6-1.2 197.6-163 357.4-360.6 356.2-197.6-1.2-357.4-163-356.2-360.6C154.8 312.1 316.6 152.4 514.2 153.6L514.2 153.6zM510.1 819C679.4 820 817.9 683.2 819 513.9 820 344.7 683.2 206.1 513.9 205 344.7 204 206.1 340.9 205 510.1 204 679.4 340.9 817.9 510.1 819L510.1 819zM339.4 606" p-id="5698"></path><path d="M589.1 607c2.9 2.9 5 6.2 6.4 9.9 1.4 3.7 2.1 7.5 2.1 11.3 0 3.8-0.8 7.5-2.2 11.1-1.5 3.6-3.7 6.8-6.6 9.7-5.8 5.9-12.7 8.9-20.8 8.8-8 0-14.9-3.1-20.7-9.1L433.3 532.4c-2.9-2.5-4.9-5.6-6.1-9.3-1.2-3.7-1.7-7.6-1.5-11.8 0.2-4.1 1.2-8.2 2.9-12.2 1.7-4 4-7.5 6.9-10.3l113.7-113.2c5.8-5.9 12.7-8.9 20.8-8.8s14.9 3.1 20.7 9.1c2.9 2.9 5 6.2 6.4 9.8 1.4 3.6 2.1 7.3 2.1 11.2 0 3.8-0.8 7.6-2.2 11.3-1.5 3.7-3.7 7-6.6 9.9l-94 93.8L589.1 607zM589.1 607" p-id="5699"></path></svg>