<?xml version="1.0" standalone="no"?><!DOCTYPE svg PUBLIC "-//W3C//DTD SVG 1.1//EN" "http://www.w3.org/Graphics/SVG/1.1/DTD/svg11.dtd"><svg t="1508326903520" class="icon" style="" viewBox="0 0 1024 1024" version="1.1" xmlns="http://www.w3.org/2000/svg" p-id="6873" xmlns:xlink="http://www.w3.org/1999/xlink" width="200" height="200"><defs><style type="text/css"></style></defs><path d="M972.8 605.866667H51.2c-25.6 0-42.666667-17.066667-42.666667-42.666667s17.066667-42.666667 42.666667-42.666667h921.6c25.6 0 42.666667 17.066667 42.666667 42.666667s-21.333333 42.666667-42.666667 42.666667z" p-id="6874"></path><path d="M682.666667 908.8c-12.8 0-21.333333-4.266667-29.866667-12.8-17.066667-17.066667-17.066667-42.666667 0-59.733333l273.066667-273.066667-273.066667-273.066667c-17.066667-17.066667-17.066667-42.666667 0-59.733333s42.666667-17.066667 59.733333 0l281.6 281.6c12.8 12.8 21.333333 29.866667 21.333334 51.2 0 17.066667-8.533333 38.4-21.333334 51.2L712.533333 896c-8.533333 8.533333-21.333333 12.8-29.866666 12.8z" p-id="6875"></path></svg>