<?xml version="1.0" encoding="utf-8"?>
<!-- Generator: Adobe Illustrator 19.2.1, SVG Export Plug-In . SVG Version: 6.00 Build 0)  -->
<svg version="1.1" id="图层_1" xmlns="http://www.w3.org/2000/svg" xmlns:xlink="http://www.w3.org/1999/xlink" x="0px" y="0px"
	 viewBox="0 0 10 10" style="enable-background:new 0 0 10 10;" xml:space="preserve">
<title>ico_courseware</title>
<desc>Created with Sketch.</desc>
<path id="Shape" d="M9.1,8.3c0,0.5-0.4,0.9-0.9,0.9H1.8c-0.5,0-0.9-0.4-0.9-0.9L0,4.6c0-0.5,0.4-0.9,0.9-0.9h8.2
	c0.5,0,0.9,0.4,0.9,0.9L9.1,8.3L9.1,8.3z M9.3,2.8H0.7c-0.1,0-0.2-0.1-0.2-0.2V1.7C0.5,1.3,0.8,1,1.1,1h3.2C4.7,1,5,1.3,5,1.7v0.2
	h4.3c0.1,0,0.1,0,0.2,0.1c0,0,0.1,0.1,0.1,0.2v0.5c0,0.1,0,0.1-0.1,0.2S9.4,2.8,9.3,2.8z"/>
</svg>
