<?xml version="1.0" encoding="utf-8"?>
<!-- Generator: Adobe Illustrator 19.2.1, SVG Export Plug-In . SVG Version: 6.00 Build 0)  -->
<svg version="1.1" id="图层_1" xmlns="http://www.w3.org/2000/svg" xmlns:xlink="http://www.w3.org/1999/xlink" x="0px" y="0px"
	 viewBox="0 0 24 24" style="enable-background:new 0 0 24 24;" xml:space="preserve">
<style type="text/css">
	.st0{fill:#A779E8;}
</style>
<title>ico_half_right</title>
<desc>Created with Sketch.</desc>
<path id="fa-check" class="st0" d="M15.9,6.8l3.5-3.4C19.6,3.2,20,3,20.4,3s0.8,0.2,1.1,0.4l2.1,2.1c0.3,0.3,0.4,0.7,0.4,1
	s-0.2,0.8-0.4,1L20,11l1.4,1.4c0.8,0.8,0.8,2.1,0,2.8L20,16.7c-0.8,0.8-2.1,0.8-2.8,0l-1.5-1.5l-3.3,3.2l-2.1,2.1
	C10,20.8,9.6,21,9.2,21c-0.4,0-0.8-0.2-1.1-0.4L6,18.5L0.4,13C0.2,12.8,0,12.4,0,12s0.2-0.8,0.4-1l2.1-2.1c0.3-0.3,0.7-0.4,1.1-0.4
	s0.8,0.2,1.1,0.4l4.6,4.5l2.3-2.3l-1.3-1.3C9.4,9,9.4,7.7,10.2,7l1.5-1.5c0.8-0.8,2.1-0.8,2.8,0L15.9,6.8z"/>
</svg>
