<?xml version="1.0" encoding="utf-8"?>
<!-- Generator: Adobe Illustrator 19.2.1, SVG Export Plug-In . SVG Version: 6.00 Build 0)  -->
<svg version="1.1" id="图层_1" xmlns="http://www.w3.org/2000/svg" xmlns:xlink="http://www.w3.org/1999/xlink" x="0px" y="0px"
	 viewBox="0 0 10 10" style="enable-background:new 0 0 10 10;" xml:space="preserve">
<title>ico_subjects</title>
<desc>Created with Sketch.</desc>
<path id="Shape" d="M8.2,3H1.2C0.7,3,0.4,2.6,0.4,2.2c0-0.4,0.4-0.8,0.8-0.8H8c0,0,0.1,0,0.1-0.1c0.1-0.1,0.1-0.2,0-0.3
	C8.1,1,8.1,1,8,1H1.1C0.5,1,0,1.5,0,2.2v6.7C0,9.5,0.5,10,1.2,10h7.1C8.6,10,9,9.6,9,9.2V3.7C9,3.3,8.7,3,8.2,3z"/>
<path id="Shape_1_" d="M0,0"/>
</svg>
