<?xml version="1.0" standalone="no"?><!DOCTYPE svg PUBLIC "-//W3C//DTD SVG 1.1//EN" "http://www.w3.org/Graphics/SVG/1.1/DTD/svg11.dtd"><svg t="1509351029996" class="icon" style="" viewBox="0 0 1025 1024" version="1.1" xmlns="http://www.w3.org/2000/svg" p-id="9431" xmlns:xlink="http://www.w3.org/1999/xlink" width="128.125" height="128"><defs><style type="text/css"></style></defs><path d="M473.177357 553.769974c49.776324-35.086417 82.382903-92.932309 82.382903-158.482274 0-107.105849-86.831525-193.937374-193.935249-193.937374s-193.935249 86.831525-193.935249 193.937374c0 69.533219 36.692893 130.32538 91.66689 164.559684C152.692798 602.565626 75.248321 702.609142 65.370405 821.945247l51.89598 0c12.982495-130.662187 123.188673-232.722298 257.289059-232.722298s244.305502 102.061174 257.289059 232.722298l51.948042 0C673.395075 696.47967 588.323024 592.402964 473.177357 553.769974zM361.625012 537.505465c-78.556897 0-142.218828-63.662993-142.218828-142.217766 0-78.55796 63.662993-142.219891 142.218828-142.219891 78.556897 0 142.218828 63.662993 142.218828 142.219891C503.844902 473.844597 440.182971 537.505465 361.625012 537.505465z" p-id="9432"></path><path d="M754.434998 553.769974c49.776324-35.086417 82.382903-92.932309 82.382903-158.482274 0-107.105849-86.831525-193.937374-193.935249-193.937374-32.271896 0-62.697195 7.894258-89.468611 21.840426 18.026108 9.391298 34.391552 21.529118 48.541718 35.863093 12.962308-3.88763 26.699167-5.986036 40.927955-5.986036 78.556897 0 142.218828 63.662993 142.218828 142.219891 0.001062 78.556897-63.661931 142.217766-142.218828 142.217766-14.276601 0-28.055959-2.112219-41.056516-6.023223-8.090818 8.176879-16.899874 15.641893-26.32836 22.287732 25.936303 8.700683 50.339441 20.735442 72.714297 35.573035 2.525525-0.072249 5.056363-0.120061 7.598887-0.120061 134.100386 0 244.305502 102.061174 257.289059 232.722298l51.94698 0C954.652716 696.47967 869.580665 592.402964 754.434998 553.769974z" p-id="9433"></path></svg>