<?xml version="1.0" encoding="utf-8"?>
<!-- Generator: Adobe Illustrator 19.2.1, SVG Export Plug-In . SVG Version: 6.00 Build 0)  -->
<svg version="1.1" id="图层_1" xmlns="http://www.w3.org/2000/svg" xmlns:xlink="http://www.w3.org/1999/xlink" x="0px" y="0px"
	 viewBox="0 0 24 24" style="enable-background:new 0 0 24 24;" xml:space="preserve">
<style type="text/css">
	.st0{fill:#A779E8;}
</style>
<title>ico_right</title>
<desc>Created with Sketch.</desc>
<path id="fa-check" class="st0" d="M23.6,5.5l-2.1-2.1C21.2,3.2,20.8,3,20.4,3s-0.8,0.2-1.1,0.4l-10.2,10L4.6,8.9
	C4.4,8.6,4,8.5,3.6,8.5S2.8,8.6,2.5,8.9L0.4,11C0.2,11.2,0,11.6,0,12s0.2,0.8,0.4,1L6,18.5l2.1,2.1C8.4,20.8,8.8,21,9.2,21
	c0.4,0,0.8-0.2,1.1-0.4l2.1-2.1l11.2-11c0.3-0.3,0.4-0.7,0.4-1S23.8,5.8,23.6,5.5z"/>
</svg>
