<?xml version="1.0" standalone="no"?><!DOCTYPE svg PUBLIC "-//W3C//DTD SVG 1.1//EN" "http://www.w3.org/Graphics/SVG/1.1/DTD/svg11.dtd"><svg t="1509350783278" class="icon" style="" viewBox="0 0 1024 1024" version="1.1" xmlns="http://www.w3.org/2000/svg" p-id="8476" xmlns:xlink="http://www.w3.org/1999/xlink" width="128" height="128"><defs><style type="text/css"></style></defs><path d="M319.396864 622.058496l0 110.05952 110.05952 0L429.456384 677.08928l-55.028736 0 0-55.030784L319.396864 622.058496 319.396864 622.058496zM154.225664 71.681024c-26.50624 0-55.030784 26.505216-55.030784 55.028736L99.19488 897.29024c0 29.871104 25.243648 55.028736 55.030784 55.028736L869.77536 952.318976c34.07872 0 55.028736-25.99936 55.028736-55.028736l0-440.32L869.77536 456.97024l0 440.32L759.63392 897.29024 264.285184 897.29024l-110.05952 0L154.225664 126.70976l55.028736 0 385.291264 0L594.545664 71.681024 154.225664 71.681024 154.225664 71.681024z" p-id="8477" fill="#2c2c2c"></path><path d="M470.710272 614.319104 432.502784 576.11264 849.757184 158.857216 887.964672 197.064704Z" p-id="8478" fill="#2c2c2c"></path></svg>