<?xml version="1.0" encoding="utf-8"?>
<!-- Generator: Adobe Illustrator 19.2.1, SVG Export Plug-In . SVG Version: 6.00 Build 0)  -->
<svg version="1.1" id="图层_1" xmlns="http://www.w3.org/2000/svg" xmlns:xlink="http://www.w3.org/1999/xlink" x="0px" y="0px"
	 viewBox="0 0 10 10" style="enable-background:new 0 0 10 10;" xml:space="preserve">
<title>ico_change</title>
<desc>Created with Sketch.</desc>
<path id="Path" d="M9.1,7H1.6l1.5,1.5c0.2,0.2,0.2,0.5,0,0.7c-0.2,0.2-0.5,0.2-0.6,0L0.1,6.9C0,6.8,0,6.7,0,6.6c0-0.1,0-0.1,0-0.2
	c0.1-0.2,0.2-0.3,0.4-0.3h8.6c0.3,0,0.5,0.2,0.5,0.5C9.6,6.8,9.3,7,9.1,7z"/>
<path id="Path_1_" d="M9.5,4.4C9.4,4.6,9.3,4.7,9.1,4.7H0.5C0.2,4.7,0,4.5,0,4.2C0,4,0.2,3.8,0.5,3.8H8l-2-2C5.9,1.6,5.9,1.3,6,1.1
	C6.2,1,6.5,1,6.7,1.1l2.7,2.8C9.6,4,9.6,4.2,9.5,4.4z"/>
</svg>
