<?xml version="1.0" standalone="no"?><!DOCTYPE svg PUBLIC "-//W3C//DTD SVG 1.1//EN" "http://www.w3.org/Graphics/SVG/1.1/DTD/svg11.dtd"><svg t="1508329394038" class="icon" style="" viewBox="0 0 1024 1024" version="1.1" xmlns="http://www.w3.org/2000/svg" p-id="8385" xmlns:xlink="http://www.w3.org/1999/xlink" width="200" height="200"><defs><style type="text/css"></style></defs><path d="M960 64l-896 0c-26.528 0-48 21.472-48 48l0 640c0 26.496 21.472 48 48 48l304 0 0 80-64 64 0 16 416 0 0-16-64-64 0-80 304 0c26.496 0 48-21.504 48-48l0-640c0-26.528-21.504-48-48-48zM944 672l-864 0 0-544 864 0 0 544z" p-id="8386"></path></svg>