<?xml version="1.0" standalone="no"?><!DOCTYPE svg PUBLIC "-//W3C//DTD SVG 1.1//EN" "http://www.w3.org/Graphics/SVG/1.1/DTD/svg11.dtd"><svg t="1508329370500" class="icon" style="" viewBox="0 0 1024 1024" version="1.1" xmlns="http://www.w3.org/2000/svg" p-id="7690" xmlns:xlink="http://www.w3.org/1999/xlink" width="200" height="200"><defs><style type="text/css"></style></defs><path d="M605.090909 496.484848 775.54508 496.484848C827.392248 496.484848 868.848485 454.806497 868.848485 403.393939 868.848485 352.085954 827.075119 310.30303 775.54508 310.30303L683.359294 310.30303 834.668172 158.994308C871.226709 122.435646 871.025199 63.695282 834.670933 27.34111 798.390644-8.93921 739.373521-9.012131 703.017736 27.343593L524.04494 206.316451 345.072175 27.343593C308.513606-9.214759 249.773242-9.013372 213.418977 27.34111 177.138688 63.62112 177.065953 122.638274 213.421739 158.994308L364.730616 310.30303 248.45492 310.30303C196.607752 310.30303 155.151515 351.981382 155.151515 403.393939 155.151515 454.701925 196.924881 496.484848 248.45492 496.484848L418.909091 496.484848 418.909091 620.606061 248.45492 620.606061C196.607752 620.606061 155.151515 662.284412 155.151515 713.69697 155.151515 765.004955 196.924881 806.787879 248.45492 806.787879L418.909091 806.787879 418.909091 915.181382C418.909091 967.028674 460.587318 1008.484848 512 1008.484848 563.308079 1008.484848 605.090909 966.711544 605.090909 915.181382L605.090909 806.787879 775.54508 806.787879C827.392248 806.787879 868.848485 765.109527 868.848485 713.69697 868.848485 662.388984 827.075119 620.606061 775.54508 620.606061L605.090909 620.606061 605.090909 496.484848Z" p-id="7691"></path></svg>