<?xml version="1.0" standalone="no"?><!DOCTYPE svg PUBLIC "-//W3C//DTD SVG 1.1//EN" "http://www.w3.org/Graphics/SVG/1.1/DTD/svg11.dtd"><svg t="1532680458011" class="icon" style="" viewBox="0 0 1481 1024" version="1.1" xmlns="http://www.w3.org/2000/svg" p-id="2208" xmlns:xlink="http://www.w3.org/1999/xlink" width="289.2578125" height="200"><defs><style type="text/css"></style></defs><path d="M0 286.7357c0-29.47684 5.024523-50.501363 14.510445-63.238875 9.671208-12.559492 30.966395-18.697548 64.359674-18.697548l205.360585 0 0 819.013639L196.058133 1023.812916c-23.622162 0-46.782925-0.18347-69.752953-0.742961-23.160763-0.368756-38.784742-0.744777-47.344233-0.744777-28.922798 1.120799-49.295187-3.812897-61.102635-14.879201-11.722071-10.879201-17.767484-31.803815-17.767484-62.316077L0.090827 709.362411c0-12 2.043597-21.117167 5.676658-26.879201 3.625795-5.95277 11.438692-10.139873 23.24614-12.376022 4.370572 0 10.04723-1.674841 17.767484-4.924614 7.344233-3.442325 14.879201-8.742961 22.323343-15.816531 7.436876-7.06812 13.950954-16.17802 19.25159-27.809265 5.300636-11.346049 8.08901-25.20436 8.08901-41.758402 0-25.113534-6.599455-44.641236-19.996367-58.873752-13.389646-14.13624-27.716622-22.508629-42.781109-24.459583-11.629428-2.13624-20.279746-5.861944-25.580382-10.693915C2.695731 480.657593 0 472.283387 0 460.29247L0 286.7357 0 286.7357 0 286.7357zM133.280656 131.13715 133.280656 111.418712l0-1.674841 0-1.667575L133.280656 88.448685c0-21.669392 8.457766-42.041781 24.920981-60.548593C174.663037 9.395096 192.70845 0 211.96004 0l221.729341 0 0 131.13715L133.280656 131.13715 133.280656 131.13715 133.280656 131.13715zM1442.154432 486.51772c-8.365123 2.319709-14.695731 6.882834-18.506812 14.134424-3.442325 6.882834-5.676658 14.881018-5.676658 23.438693 0 8.926431 2.143506 17.29882 5.676658 25.389646 3.811081 8.372389 10.139873 14.139873 18.506812 17.29882 8.557675 3.442325 15.440509 9.954587 20.187103 19.625795 4.924614 9.950954 7.620345 20.181653 7.996367 31.25159 0.554042 10.877384-0.930064 21.393279-4.001817 31.066304-3.257039 9.763851-7.996367 16.922798-14.31971 21.386013-21.393279 13.113533-31.994551 27.809265-31.994551 44.178021s10.508629 32.924615 31.994551 49.017258c4.370572 3.442325 8.181653 9.487739 11.992734 17.945504 3.633061 8.933697 5.491372 17.584015 5.491372 26.510446 0 8.742961-1.950954 16.185286-6.328792 22.692099-4.370572 6.699364-11.807448 9.954587-22.501363 9.954587l-86.683017 0c-6.138056 0-9.771117-0.561308-10.139873-1.858311-0.561308-1.120799 0.185286-2.888283 2.13624-5.491372 2.143506-2.881017 4.746594-5.861944 8.003633-9.302452 3.249773-3.249773 5.854678-7.06812 8.181653-11.438692 5.300636-15.249773 5.300636-28.363307 0-39.246141-5.485922-11.071753-14.31971-20.179837-27.438693-27.809265-8.550409-4.370572-14.879201-11.253406-18.321526-20.741145-3.811081-9.111717-5.300636-18.690282-4.739328-28.554042 0.368756-9.949137 2.13624-18.506812 5.485922-26.134424 3.257039-7.814714 8.188919-13.297003 14.326976-16.554042 8.742961-3.257039 15.064487-9.302452 19.25159-17.952771 4.370572-8.557675 6.506812-17.945504 6.506812-27.809265 0-9.856494-1.858311-18.882834-4.739328-27.062671-3.257039-8.181653-7.996367-13.950954-14.695731-17.11535-8.372389-4.557675-15.064487-10.877384-19.996367-19.811081-4.839237-8.366939-7.158947-18.130791-7.158947-29.106268 0-11.069937 1.950954-21.576749 6.321526-31.996368 4.370572-10.415986 11.069937-18.881018 20.741145-25.38783 6.699364-4.372389 11.998184-10.325159 16.185286-17.952771 4.555858-7.812898 6.506812-15.809265 7.436876-24.552226 0.561308-8.833788-1.489555-17.206177-4.93188-25.38783-3.811081-8.281562-10.508629-14.97911-20.179837-20.465032-10.508629-5.393279-18.506812-13.489555-23.253406-23.714805-4.739328-10.415986-7.25159-21.207993-7.25159-31.994551 0-11.069937 2.512262-21.300636 7.25159-31.249774 4.746594-9.671208 11.445958-17.484106 19.996367-23.06812 18.13624-9.671208 28.368756-23.160763 29.767485-39.992735 1.674841-16.922798 0.368756-32.648502-4.001817-46.597639-3.442325-11.062671-9.671208-20.833788-19.066304-29.574932-9.763851-8.835604-22.132607-13.113533-37.019074-13.113533L531.811091 129.371483 531.811091 0l904.205285 0c7.444142 0 13.582198 2.788374 18.882834 8.181653 5.485922 5.491372 9.111717 11.998184 10.693915 19.718438 1.674841 7.629428 1.120799 15.533152-1.674841 23.714805-2.512262 8.096276-7.620345 15.164396-15.249773 20.648502-6.514078 5.493188-12.18347 12.376022-16.930064 21.20981-4.924614 8.742961-7.25159 17.669392-8.181653 27.062671-0.376022 9.395096 1.113533 18.506812 4.187103 27.901908 3.066303 9.209809 8.926431 16.092643 17.576749 20.463216 11.998184 6.508629 20.741145 15.533152 26.503179 26.879201 5.95277 11.438692 9.02634 22.877385 9.02634 34.223434 0 11.631245-3.071753 22.2307-8.926431 31.994551-5.861944 9.949137-13.95822 17.11535-24.742961 21.302453-11.814714 4.555858-20.555859 10.693915-25.765668 18.875568-5.485922 8.279746-8.181653 17.29882-8.926431 26.970028-0.561308 9.86376 1.489555 19.442326 6.138056 28.646685 4.93188 9.395096 12.744778 17.491372 23.436876 23.998184 10.693915 6.321526 18.697548 15.064487 23.436876 26.134424 4.746594 10.792007 6.699364 21.669392 6.321526 32.739328-0.554042 10.877384-3.249773 20.924614-7.996367 30.31971C1458.901026 480.096285 1451.918283 485.396921 1442.154432 486.51772L1442.154432 486.51772 1442.154432 486.51772zM1233.453247 461.960045c-12.744778 3.257039-22.692099 9.678474-29.767485 18.697548-6.882834 9.485922-10.508629 18.881018-11.253406 28.920981-0.368756 9.771117 2.326976 19.627612 8.003633 29.576749 6.138056 9.678474 14.695731 16.744778 26.686649 21.117167 10.515895 4.555858 18.697548 11.06812 23.998184 19.618529 5.485922 8.933697 8.372389 18.138057 8.926431 28.001817 0.561308 9.856494-1.482289 19.25159-5.669392 27.809265-4.187103 8.742961-10.701181 15.440509-19.25159 19.620346-26.693915 13.304269-40.737512 29.113534-41.574933 47.620346-1.306085 18.512262 8.926431 33.200727 30.31971 44.363307 9.671208 4.370572 17.484106 11.069937 23.24614 20.370573 5.95277 9.304269 9.118983 19.06812 9.771117 29.576749 0.554042 10.139873-1.489555 19.625795-5.861944 27.623979-4.187103 8.557675-11.253406 13.949137-20.741145 17.484106-12.928247 3.257039-22.692099 9.1099-29.943688 17.952771-6.699364 8.550409-10.325159 17.943688-10.884651 27.616713-0.744777 10.139873 1.950954 19.811081 7.996367 29.582199 5.861944 9.947321 15.255223 18.128974 27.992734 24.735695 8.748411 4.370572 14.695731 11.253406 18.512262 20.372389 3.811081 9.480472 5.11535 18.321526 4.187103 27.062671-1.306085 8.742961-4.187103 16.739328-9.118983 23.622162-4.739328 7.249773-11.438692 10.693915-20.179837 10.693915L379.002732 1024.000019 379.002732 204.799277l849.518635 0c8.557675 0 15.440509 3.349682 20.365123 10.693915 4.746594 7.07357 7.258856 14.886467 8.003633 23.722071 0.554042 8.833788-1.489555 17.484106-5.861944 26.132607-4.187103 8.650318-11.253406 14.788374-20.741145 17.952771-9.671208 3.342416-17.484106 8.833788-23.436876 16.463216-5.95277 7.527702-9.302452 16.17802-10.508629 25.295187-0.930064 9.387829 1.298819 18.228883 6.506812 27.064487 5.491372 8.833788 14.510445 15.347866 27.438693 19.620346 9.487739 4.377838 17.484106 10.884651 23.253406 19.718438 5.762035 8.833788 9.302452 17.674841 9.671208 26.879201 0.561308 9.578565-1.674841 18.13624-6.321526 26.510446C1252.143529 452.848328 1244.330632 458.710272 1233.453247 461.960045L1233.453247 461.960045 1233.453247 461.960045zM846.361505 571.894652c-5.11535 0-10.884651-0.555858-16.930064-1.674841-5.769301-1.300636-6.882834-4.557675-4.001817-9.949137 1.306085-1.95277 6.328792-9.763851 15.440509-22.884651 9.118983-13.297003 19.066304-27.062671 30.504996-41.758402 11.253406-14.881018 21.393279-28.739328 31.442326-41.760219 9.487739-13.111717 15.433243-21.29337 17.484106-24.735695 5.485922-8.557675 2.13624-18.881018-9.671208-30.971844-1.95822-2.236149-6.328792-5.585831-12.928247-10.049047-6.138056-4.277929-12.090827-7.527702-17.391463-9.671208-8.742961-3.15713-14.886467-3.811081-18.697548-1.582198-3.442325 2.143506-8.181653 6.975477-13.482289 14.695731-2.143506 3.164396-7.444142 11.160763-16.185286 23.629428-8.465032 12.828338-17.576749 26.041781-27.255223 40.268847-9.578565 14.317893-18.506812 27.062671-26.503179 38.316077-8.181653 11.631245-12.652135 18.321526-13.582198 20.650318-2.043597 4.187103-6.230699 6.045413-12.18347 4.93188-5.861944-1.120799-9.763851-3.818347-11.807448-8.188919-1.306085-2.13624-5.95277-8.555858-14.603088-19.06812-8.650318-10.132607-17.860127-21.762035-27.347866-35.059038-9.485922-13.306086-18.873751-25.20436-27.992734-36.835605-9.209809-11.529519-15.255223-19.342416-18.597639-23.898275-9.678474-18.512262-19.811081-24.459583-30.412353-17.860127-7.536785 4.279746-14.326976 8.926431-20.279746 13.765668-5.861944 5.117166-11.438692 9.209809-16.739328 12.559492-10.693915 7.436876-12.276113 17.391463-4.839237 29.384197 18.13624 21.762035 34.321527 41.950954 48.27248 60.641236 11.714805 15.255223 22.877385 29.767485 33.762035 44.363307 10.601272 13.95822 17.015441 22.139873 19.066304 24.559492 2.227066 4.187103 0 6.506812-6.421435 6.506812l-19.066304 0c-5.300636 0-13.206176 0.185286-23.24614 0.742961-10.325159 0.563124-19.720255 0.376022-28.368756-0.742961-8.466848 0-15.533152 1.949137-20.926431 6.514078-5.207993 4.187103-6.882834 9.669392-4.653951 16.176204 1.028156 4.564941 1.582198 11.071753 1.582198 19.629428l0 19.996367c0 5.300636 1.489555 8.372389 4.839237 8.926431 3.257039 0.468665 6.882834 0.652134 11.253406 0.652134l93.189829 0c12.652135 0 19.066304 2.695731 19.066304 8.188919l0 31.059038c0 5.676658-0.930064 8.372389-3.15713 8.372389l-8.00545 0-16.17802 0-31.994551 0-32.179837 0-19.25159 0c-6.328792-1.113533-10.515895 0.561308-12.742961 4.739328-2.043597 4.563125-3.625795 9.487739-4.839237 14.886467-1.11535 5.669392-1.11535 10.693915 0 15.433243 1.213442 5.113533 1.489555 9.302452 1.489555 12.376022 0 14.31971 6.975477 21.386013 20.926431 21.386013l96.445052 0c5.585831 0 8.650318 0.744777 9.580382 2.326976 1.028156 1.674841 1.674841 5.300636 1.674841 10.693915 1.120799 5.491372 1.489555 15.255223 0.744777 29.391463-0.461399 14.326976-0.837421 23.529519-0.837421 28.090827 0 11.994551 6.975477 17.947321 20.833788 17.947321l51.52952 0c8.550409 0 12.920981-2.695731 12.920981-8.365123l0-11.253406 0-54.134424c0-11.062671 4.93188-16.554042 14.326976-16.554042l14.510445 0c7.436876 0 15.994551-0.185286 24.920981-0.930064 9.302452-0.368756 17.952771-0.744777 26.325159-0.744777l20.926431 0c14.879201 0 22.692099-5.485922 22.692099-16.17802l0-36.18347c0-9.95277-5.300636-14.877384-15.994551-14.877384l-93.380565 0c-10.508629 2.319709-16.185286 0-16.185286-6.514078 0-3.066303-0.185286-7.25159-0.744777-12.18347-0.554042-4.924614-0.644868-9.302452-0.644868-13.858311 0-4.188919 1.674841-7.627611 5.485922-9.671208 3.909174-2.326976 7.905541-3.442325 12.090827-3.442325l94.86467 0c10.508629 0 16.001817-3.625795 16.001817-11.438692l0-39.338784c0-4.370572-1.858311-8.557675-5.676658-12.928247-3.811081-4.563125-8.365123-6.514078-13.574932-6.514078L846.361505 571.896468 846.361505 571.894652 846.361505 571.894652zM846.361505 571.894652" p-id="2209"></path></svg>