<?xml version="1.0" standalone="no"?><!DOCTYPE svg PUBLIC "-//W3C//DTD SVG 1.1//EN" "http://www.w3.org/Graphics/SVG/1.1/DTD/svg11.dtd"><svg t="1548841091645" class="icon" style="" viewBox="0 0 1024 1024" version="1.1" xmlns="http://www.w3.org/2000/svg" p-id="3159" xmlns:xlink="http://www.w3.org/1999/xlink" width="200" height="200"><defs><style type="text/css"></style></defs><path d="M838.4 454.4 512 601.6 512 601.6c0 0-6.4 0-6.4 0l-320-147.2c-6.4 0-12.8 0-19.2 6.4 0 6.4 0 12.8 6.4 19.2l313.6 147.2c6.4 6.4 12.8 6.4 19.2 6.4 6.4 0 12.8 0 19.2-6.4l326.4-147.2c6.4 0 6.4-12.8 6.4-19.2C851.2 454.4 844.8 448 838.4 454.4z" p-id="3160"></path><path d="M896 288l-89.6 0L806.4 102.4l-57.6-57.6L249.6 44.8c-12.8 0-25.6 12.8-25.6 25.6l0 211.2L128 281.6c-70.4 0-128 57.6-128 128l0 435.2c0 70.4 57.6 128 128 128l768 0c70.4 0 128-57.6 128-128L1024 416C1024 345.6 966.4 288 896 288zM300.8 153.6l422.4 0c6.4 0 12.8 6.4 12.8 12.8s-6.4 12.8-12.8 12.8L300.8 179.2c-6.4 0-12.8-6.4-12.8-12.8S294.4 153.6 300.8 153.6zM294.4 275.2l435.2 0c6.4 0 12.8 6.4 12.8 12.8 0 6.4-6.4 12.8-12.8 12.8L294.4 300.8c-6.4 0-12.8-6.4-12.8-12.8C281.6 281.6 288 275.2 294.4 275.2zM972.8 851.2c0 44.8-32 76.8-76.8 76.8L128 928c-44.8 0-76.8-32-76.8-76.8L51.2 416c0-44.8 32-76.8 76.8-76.8l89.6 0 0 70.4c0 12.8 12.8 25.6 25.6 25.6l531.2 0c12.8 0 25.6-12.8 25.6-25.6L800 339.2 896 339.2c44.8 0 76.8 32 76.8 76.8L972.8 851.2z" p-id="3161"></path></svg>