<?xml version="1.0" standalone="no"?><!DOCTYPE svg PUBLIC "-//W3C//DTD SVG 1.1//EN" "http://www.w3.org/Graphics/SVG/1.1/DTD/svg11.dtd"><svg t="1548231103159" class="icon" style="" viewBox="0 0 1024 1024" version="1.1" xmlns="http://www.w3.org/2000/svg" p-id="7009" xmlns:xlink="http://www.w3.org/1999/xlink" width="200" height="200"><defs><style type="text/css"></style></defs><path d="M491.001136 735.388229H359.501496c-15.518006 0-28.099509-12.568192-28.099509-28.100533 0-15.531316 12.581503-28.100533 28.099509-28.100533h131.49964c15.518006 0 28.100533 12.568192 28.100533 28.100533-0.001024 15.53234-12.582527 28.100533-28.100533 28.100533zM637.003088 557.21068H359.501496c-15.518006 0-28.099509-12.568192-28.099509-28.099508 0-15.53234 12.581503-28.100533 28.099509-28.100533H637.003088c15.518006 0 28.100533 12.568192 28.100532 28.100533 0 15.531316-12.582527 28.099509-28.100532 28.099508zM637.003088 385.536852H359.501496c-15.518006 0-28.099509-12.568192-28.099509-28.100533 0-15.531316 12.581503-28.099509 28.099509-28.099509H637.003088c15.518006 0 28.100533 12.568192 28.100532 28.099509 0 15.53234-12.582527 28.100533-28.100532 28.100533z" fill="#3E3A39" p-id="7010"></path><path d="M906.285952 259.827283L748.031165 72.594493a28.109748 28.109748 0 0 0-21.459613-9.96138H176.28848c-38.472491 0-69.783928 31.310413-69.783929 69.783928v757.768314c0 38.473515 31.310413 69.783928 69.783929 69.783928h666.854464c38.472491 0 69.783928-31.310413 69.783928-69.783928V277.966436a28.067768 28.067768 0 0 0-6.64092-18.139153z m-153.661638-94.733965l73.383909 86.820356h-73.383909v-86.820356z m90.51863 738.675924H176.28848c-7.491769 0-13.583887-6.092118-13.583887-13.583887V132.417041c0-7.491769 6.092118-13.583887 13.583887-13.583886h520.135792v161.181051c0 15.531316 12.581503 28.099509 28.099509 28.099509h132.20305v582.070616c0 7.492793-6.092118 13.58491-13.583887 13.584911z" fill="#3E3A39" p-id="7011"></path></svg>