<?xml version="1.0" standalone="no"?><!DOCTYPE svg PUBLIC "-//W3C//DTD SVG 1.1//EN" "http://www.w3.org/Graphics/SVG/1.1/DTD/svg11.dtd"><svg t="1548232061408" class="icon" style="" viewBox="0 0 1024 1024" version="1.1" xmlns="http://www.w3.org/2000/svg" p-id="8025" xmlns:xlink="http://www.w3.org/1999/xlink" width="200" height="200"><defs><style type="text/css"></style></defs><path d="M517 170.3c-4.8-4.8-11.5-7.8-18.9-7.8-7.4 0-14 3-18.9 7.8-4.8 4.8-7.8 11.5-7.8 18.9 0 7.4 3 14.1 7.8 18.9 4.5 4.5 10.7 7.4 17.5 7.8h2.7c6.8-0.4 13-3.3 17.5-7.8 4.8-4.8 7.8-11.5 7.8-18.9 0.1-7.4-2.8-14.1-7.7-18.9z m-18.9-37.5c17.2 0 32.8 1 44 12.3 11.3 11.3 18.2 26.8 18.2 44.1h71.2v89h-267v-89h71.2c0-17.2 7-32.8 18.3-44 11.4-11.3 26.9-12.4 44.1-12.4z m-234.4 83.1H341v35.6h-77.3c-6.5 0-12.4 2.7-16.7 7-4.3 4.3-7 10.2-7 16.8V833c0 13 10.7 23.7 23.7 23.7h469c13 0 23.7-10.7 23.7-23.7V275.2c0-6.5-2.7-12.4-7-16.8-4.3-4.3-10.2-7-16.7-7h-77.3v-35.6h77.3c16.3 0 31.2 6.7 41.9 17.4s17.4 25.6 17.4 41.9v557.7c0 32.6-26.7 59.3-59.3 59.3h-469c-32.7 0-59.3-26.7-59.3-59.3V275.2c0-16.3 6.7-31.2 17.4-41.9 10.7-10.8 25.5-17.4 41.9-17.4z" fill="#C4603E" p-id="8026"></path><path d="M299.4 735.5h344.1v23.8H299.4v-23.8z m0-219.5h54.3l35.1-87.3c2.4-6.1 9.3-9 15.4-6.6 3.2 1.3 5.5 3.8 6.7 6.8l52.7 137.8L511 384.8c1.6-6.3 8.1-10.1 14.4-8.5 3.7 0.9 6.5 3.6 7.9 6.8L589 513h54.5v23.7h-62.3c-4.6 0-9-2.7-10.9-7.2l-45.2-105.3-47.7 183.3c-0.7 3.9-3.4 7.4-7.4 8.9-6.1 2.3-13-0.7-15.3-6.9l-55.2-144.1-26.5 66c-1.5 4.8-6 8.3-11.3 8.3h-62.3V516z m0 157.2h344.1V696.9H299.4V673.2z" fill="#C4603E" p-id="8027"></path></svg>