<?xml version="1.0" standalone="no"?><!DOCTYPE svg PUBLIC "-//W3C//DTD SVG 1.1//EN" "http://www.w3.org/Graphics/SVG/1.1/DTD/svg11.dtd"><svg t="1548919368604" class="icon" style="" viewBox="0 0 1024 1024" version="1.1" xmlns="http://www.w3.org/2000/svg" p-id="1871" xmlns:xlink="http://www.w3.org/1999/xlink" width="200" height="200"><defs><style type="text/css"></style></defs><path d="M949.480727 352.733091c-4.410182-12.090182-17.792-18.269091-29.824-13.905455-12.078545 4.398545-18.292364 17.757091-13.893818 29.835636C922.437818 414.510545 930.909091 462.731636 930.909091 512c0 230.993455-187.915636 418.909091-418.909091 418.909091S93.090909 742.993455 93.090909 512 281.006545 93.090909 512 93.090909c78.138182 0 154.368 21.655273 220.427636 62.615273 10.938182 6.784 25.274182 3.409455 32.046545-7.517091 6.772364-10.914909 3.409455-25.262545-7.517091-32.034909C683.52 70.609455 598.818909 46.545455 512 46.545455 255.348364 46.545455 46.545455 255.348364 46.545455 512c0 256.651636 208.802909 465.454545 465.454545 465.454545 256.651636 0 465.454545-208.802909 465.454545-465.454545C977.454545 457.274182 968.040727 403.700364 949.480727 352.733091z" p-id="1872"></path><path d="M676.561455 347.438545c-9.088-9.088-23.819636-9.088-32.907636 0L512 479.092364 380.346182 347.438545c-9.076364-9.088-23.831273-9.088-32.907636 0-9.088 9.088-9.088 23.819636 0 32.907636L479.092364 512 347.438545 643.642182c-9.088 9.088-9.088 23.819636 0 32.907636 4.538182 4.549818 10.496 6.818909 16.453818 6.818909s11.915636-2.269091 16.453818-6.818909L512 544.907636l131.642182 131.642182c4.549818 4.549818 10.496 6.818909 16.453818 6.818909s11.904-2.269091 16.453818-6.818909c9.088-9.088 9.088-23.819636 0-32.907636L544.907636 512l131.642182-131.653818C685.649455 371.258182 685.649455 356.526545 676.561455 347.438545z" p-id="1873"></path></svg>