<?xml version="1.0" standalone="no"?><!DOCTYPE svg PUBLIC "-//W3C//DTD SVG 1.1//EN" "http://www.w3.org/Graphics/SVG/1.1/DTD/svg11.dtd"><svg t="1548920159037" class="icon" style="" viewBox="0 0 1024 1024" version="1.1" xmlns="http://www.w3.org/2000/svg" p-id="1988" xmlns:xlink="http://www.w3.org/1999/xlink" width="200" height="200"><defs><style type="text/css"></style></defs><path d="M341.34016 128l554.65984 0q53.00224 0 90.50112 37.49888t37.49888 90.50112l0 512q0 53.00224-37.49888 90.50112t-90.50112 37.49888l-554.65984 0-341.34016-384zM896 213.34016l-516.34176 0-265.33888 298.65984 265.33888 298.65984 516.34176 0q17.67424 0 30.16704-12.4928t12.4928-30.16704l0-512q0-17.67424-12.4928-30.16704t-30.16704-12.4928zM810.65984 384q0 18.00192-12.32896 30.33088l-97.9968 97.66912 97.9968 97.66912q12.32896 12.32896 12.32896 30.33088 0 18.3296-12.16512 30.49472t-30.49472 12.16512q-18.00192 0-30.33088-12.32896l-97.66912-97.9968-97.66912 97.9968q-12.32896 12.32896-30.33088 12.32896-17.67424 0-30.16704-12.4928t-12.4928-30.16704q0-17.32608 12.32896-30.33088l97.9968-97.66912-97.9968-97.66912q-12.32896-13.0048-12.32896-30.33088 0-17.67424 12.4928-30.16704t30.16704-12.4928q18.00192 0 30.33088 12.32896l97.66912 97.9968 97.66912-97.9968q12.32896-12.32896 30.33088-12.32896 18.3296 0 30.49472 12.16512t12.16512 30.49472z" p-id="1989"></path></svg>