<?xml version="1.0" standalone="no"?><!DOCTYPE svg PUBLIC "-//W3C//DTD SVG 1.1//EN" "http://www.w3.org/Graphics/SVG/1.1/DTD/svg11.dtd"><svg t="1545901562856" class="icon" style="" viewBox="0 0 1024 1024" version="1.1" xmlns="http://www.w3.org/2000/svg" p-id="7004" xmlns:xlink="http://www.w3.org/1999/xlink" width="200" height="200"><defs><style type="text/css"></style></defs><path d="M358.4 256l563.2 0C977.92 256 1024 209.92 1024 153.6s-46.08-102.4-102.4-102.4L358.4 51.2C302.08 51.2 256 97.28 256 153.6S302.08 256 358.4 256zM358.4 102.4l563.2 0c28.224 0 51.2 22.976 51.2 51.2 0 28.224-22.976 51.2-51.2 51.2L358.4 204.8c-28.224 0-51.2-22.976-51.2-51.2C307.2 125.376 330.176 102.4 358.4 102.4z" p-id="7005"></path><path d="M102.4 51.2C45.824 51.2 0 97.024 0 153.6S45.824 256 102.4 256s102.4-45.824 102.4-102.4S158.976 51.2 102.4 51.2zM102.4 204.8c-28.224 0-51.2-22.976-51.2-51.2 0-28.224 22.976-51.2 51.2-51.2s51.2 22.976 51.2 51.2C153.6 181.824 130.624 204.8 102.4 204.8z" p-id="7006"></path><path d="M921.6 409.6 358.4 409.6C302.08 409.6 256 455.68 256 512s46.08 102.4 102.4 102.4l563.2 0C977.92 614.4 1024 568.32 1024 512S977.92 409.6 921.6 409.6zM921.6 563.2 358.4 563.2C330.176 563.2 307.2 540.224 307.2 512c0-28.224 22.976-51.2 51.2-51.2l563.2 0c28.224 0 51.2 22.976 51.2 51.2C972.8 540.224 949.824 563.2 921.6 563.2z" p-id="7007"></path><path d="M102.4 409.6C45.824 409.6 0 455.424 0 512s45.824 102.4 102.4 102.4S204.8 568.576 204.8 512 158.976 409.6 102.4 409.6zM102.4 563.2C74.176 563.2 51.2 540.224 51.2 512c0-28.224 22.976-51.2 51.2-51.2S153.6 483.776 153.6 512C153.6 540.224 130.624 563.2 102.4 563.2z" p-id="7008"></path><path d="M921.6 768 358.4 768C302.08 768 256 814.08 256 870.4c0 56.32 46.08 102.4 102.4 102.4l563.2 0c56.32 0 102.4-46.08 102.4-102.4C1024 814.08 977.92 768 921.6 768zM921.6 921.6 358.4 921.6c-28.224 0-51.2-22.976-51.2-51.2 0-28.224 22.976-51.2 51.2-51.2l563.2 0c28.224 0 51.2 22.976 51.2 51.2C972.8 898.624 949.824 921.6 921.6 921.6z" p-id="7009"></path><path d="M102.4 768C45.824 768 0 813.824 0 870.4s45.824 102.4 102.4 102.4 102.4-45.824 102.4-102.4S158.976 768 102.4 768zM102.4 921.6c-28.224 0-51.2-22.976-51.2-51.2 0-28.224 22.976-51.2 51.2-51.2s51.2 22.976 51.2 51.2C153.6 898.624 130.624 921.6 102.4 921.6z" p-id="7010"></path></svg>