<?xml version="1.0" standalone="no"?><!DOCTYPE svg PUBLIC "-//W3C//DTD SVG 1.1//EN" "http://www.w3.org/Graphics/SVG/1.1/DTD/svg11.dtd"><svg t="1545901541045" class="icon" style="" viewBox="0 0 1024 1024" version="1.1" xmlns="http://www.w3.org/2000/svg" p-id="6888" xmlns:xlink="http://www.w3.org/1999/xlink" width="200" height="200"><defs><style type="text/css"></style></defs><path d="M416.006204 500.004805l-350.994026 0L65.012178 320.431963c0-76.983325 73.821309-149.931754 151.901619-149.931754l199.092407 0L416.006204 500.004805zM112.084263 452.93272l255.82655 0 0-235.360426L216.91482 217.572294c-52.005444 0-104.829534 51.9113-104.829534 102.859669L112.085286 452.93272zM708.005604 548.43891c-128.945791 0-233.852072-104.896048-233.852072-233.830583 0-128.959094 104.907305-233.875608 233.852072-233.875608 128.947837 0 233.853096 104.916515 233.853096 233.875608C941.8587 443.542862 836.953442 548.43891 708.005604 548.43891zM708.005604 127.502929c-103.157451 0-187.081862 83.934644-187.081862 187.105399 0 103.144148 83.925435 187.05935 187.081862 187.05935 103.158475 0 187.080839-83.914178 187.080839-187.05935C895.086443 211.438597 811.163055 127.502929 708.005604 127.502929zM843.413983 444.199807l116.925433 116.925433-33.071215 33.071215-116.925433-116.925433 33.071215-33.071215ZM416.006204 942.073082 216.91482 942.073082c-37.357839 0-74.841545-12.490475-102.839203-34.270525-31.638581-24.613584-49.063439-58.805314-49.063439-96.280834L65.012178 591.079056l350.994026 0L416.006204 942.073082zM112.084263 639.174448l0 172.347277c0 51.662637 54.336536 83.479273 104.829534 83.479273l150.997016 0 0-255.82655L112.084263 639.174448zM731.391221 942.073082 510.150374 942.073082l0-350.994026 350.994026 0 0 220.442668C861.1444 889.61022 808.554648 942.073082 731.391221 942.073082zM557.222459 895.000997 731.391221 895.000997c51.405787 0 81.657788-31.105439 81.657788-83.479273L813.049009 639.174448l-255.82655 0L557.222459 895.000997z" p-id="6889"></path></svg>