<?xml version="1.0" standalone="no"?><!DOCTYPE svg PUBLIC "-//W3C//DTD SVG 1.1//EN" "http://www.w3.org/Graphics/SVG/1.1/DTD/svg11.dtd"><svg t="1545901690428" class="icon" style="" viewBox="0 0 1024 1024" version="1.1" xmlns="http://www.w3.org/2000/svg" p-id="13087" xmlns:xlink="http://www.w3.org/1999/xlink" width="200" height="200"><defs><style type="text/css"></style></defs><path d="M512 1024a512 512 0 1 1 512-512 512.484848 512.484848 0 0 1-512 512z m0-959.353535a447.353535 447.353535 0 1 0 447.353535 447.353535A447.838384 447.838384 0 0 0 512 64.646465z" fill="#3D3D3D" p-id="13088"></path><path d="M751.838384 544.323232H512a32.323232 32.323232 0 0 1-32.323232-32.323232V176.161616a32.323232 32.323232 0 1 1 64.646464 0v303.515152h207.515152a32.323232 32.323232 0 0 1 0 64.646464z" fill="#3D3D3D" p-id="13089"></path><path d="M877.252525 517.171717a354.262626 354.262626 0 0 1-708.363636 0" fill="#F683A2" p-id="13090"></path></svg>