<?xml version="1.0" standalone="no"?><!DOCTYPE svg PUBLIC "-//W3C//DTD SVG 1.1//EN" "http://www.w3.org/Graphics/SVG/1.1/DTD/svg11.dtd"><svg t="1545901720363" class="icon" style="" viewBox="0 0 1024 1024" version="1.1" xmlns="http://www.w3.org/2000/svg" p-id="13205" xmlns:xlink="http://www.w3.org/1999/xlink" width="200" height="200"><defs><style type="text/css"></style></defs><path d="M571.9 533.1c-7.1-4.2-11.8-11.9-11.8-20.7 0-10.1 6.2-18.8 15.1-22.4 94.4-44.1 256.2-146.2 256.2-266.9 0-123.8-203.7-158.2-336.1-158.2s-304 34.4-304 158.2c0 123.2 162.1 227 257.3 269.5 8.1 3.9 13.6 12.1 13.6 21.7 0 10-6.1 18.6-14.7 22.2-94.5 44.2-256.4 146.3-256.4 267 0 123.8 203.7 156.2 336.1 156.2s304-32.4 304-156.2c0-124-164.4-228.4-259.3-270.4z" fill="#F2F2F1" p-id="13206"></path><path d="M571.2 533.1c-7.1-4.2-11.8-11.9-11.8-20.7 0-10.1 6.2-18.8 15.1-22.4 94.4-44.1 256.2-146.2 256.2-266.9 0-123.8-186.1-156.2-318.5-156.2S190.5 99.3 190.5 223.1c0 123.2 162.1 227 257.3 269.5 8.1 3.9 13.6 12.1 13.6 21.7 0 10-6.1 18.6-14.7 22.2-94.4 44.1-256.3 146.2-256.3 266.9 0 123.8 189.2 154.5 321.7 154.5s318.4-30.6 318.4-154.5-164.4-228.3-259.3-270.3z" fill="#F2F2F1" p-id="13207"></path><path d="M591.9 533.1c-7.1-4.2-11.8-11.9-11.8-20.7 0-10.1 6.2-18.8 15.1-22.4 94.4-44.1 256.2-146.2 256.2-266.9 0-123.8-203.7-157.2-336.1-157.2-3.3 0-6.6 0-10 0.1 132.4 1.7 326.1 36.4 326.1 157.1 0 120.7-161.8 222.8-256.2 266.9-8.8 3.6-15.1 12.2-15.1 22.4 0 8.8 4.7 16.5 11.8 20.7 94.9 42 259.3 146.3 259.3 270.4 0 120.7-163.1 154.4-294 156.1 3.4 0 6.7 0.1 10 0.1 132.5 0 304-32.4 304-156.2 0-124-164.4-228.4-259.3-270.4z" fill="#E5E4DD" p-id="13208"></path><path d="M876.9 168.8H149.1c-28.6 0-52-23.4-52-52s23.4-52 52-52H877c28.6 0 52 23.4 52 52-0.1 28.6-23.5 52-52.1 52zM875.3 856.5H149c-28.5 0-51.9 23.3-51.9 51.9 0 28.5 23.3 51.9 51.9 51.9h726.3c28.5 0 51.9-23.3 51.9-51.9 0-28.6-23.4-51.9-51.9-51.9z" fill="#694B4B" p-id="13209"></path><path d="M512.2 584.2m-19.6 0a19.6 19.6 0 1 0 39.2 0 19.6 19.6 0 1 0-39.2 0Z" fill="#B5E66E" p-id="13210"></path><path d="M512 671.1m-34.5 0a34.5 34.5 0 1 0 69 0 34.5 34.5 0 1 0-69 0Z" fill="#B5E66E" p-id="13211"></path><path d="M736.2 297.1c0-71.7-134.4-69.9-224-69.9s-224-1.9-224 69.9c0 75.7 95.7 161.2 179.5 186.1 10.3 3.1 18.8 10.4 23 20.3 1.8 4.3 3.4 9 4.8 14 1.4 6.3 7.5 14.7 15.9 14.7s14.3-7.5 15.9-14.7c1.5-5 3.1-9.7 5-13.9 4.3-9.7 12.7-17.9 22.9-20.9 84-24.3 181-109.4 181-185.6zM256.1 856.5c0-23.6 127.7-116.8 255.9-116.8 127.8 0 255.9 93.2 255.9 116.8" fill="#B5E66E" p-id="13212"></path><path d="M239.395307 239.311769a20 20 0 1 0 5.355988-39.639796 20 20 0 1 0-5.355988 39.639796Z" fill="#FFFFFF" p-id="13213"></path></svg>