<?xml version="1.0" standalone="no"?><!DOCTYPE svg PUBLIC "-//W3C//DTD SVG 1.1//EN" "http://www.w3.org/Graphics/SVG/1.1/DTD/svg11.dtd"><svg t="1545901606495" class="icon" style="" viewBox="0 0 1024 1024" version="1.1" xmlns="http://www.w3.org/2000/svg" p-id="9319" xmlns:xlink="http://www.w3.org/1999/xlink" width="200" height="200"><defs><style type="text/css"></style></defs><path d="M836.879252 877.489158l-40.623209 0L796.256042 771.125689c0-59.154261-59.33641-108.910479-115.690906-157.030429-19.591197-16.72594-46.74872-41.527812-56.900941-53.077869l0-98.03478c10.152221-11.550057 37.310767-36.351929 56.900941-53.077869 56.354496-48.119951 115.690906-97.876168 115.690906-157.030429L796.256042 146.509818l40.623209 0c22.426779 0 40.609906-18.183128 40.609906-40.609906S859.306031 65.290005 836.879252 65.290005L187.120748 65.290005c-22.425755 0-40.609906 18.183128-40.609906 40.609906s18.184151 40.609906 40.609906 40.609906l40.596604 0 0 106.36347c0 59.154261 59.33334 108.910479 115.692952 157.030429 19.586081 16.72594 46.747697 41.527812 56.899918 53.077869l0 98.03478c-10.152221 11.550057-37.313837 36.351929-56.899918 53.077869C287.049668 662.21521 227.717352 711.971427 227.717352 771.125689l0 106.36347-40.596604 0c-22.425755 0-40.609906 18.183128-40.609906 40.609906 0 22.426779 18.184151 40.609906 40.609906 40.609906l649.759527 0c22.426779 0 40.609906-18.183128 40.609906-40.609906C877.489158 895.672286 859.306031 877.489158 836.879252 877.489158zM308.937165 771.125689c0-21.703301 57.097416-69.555146 87.207178-95.263667 48.958038-41.794895 85.384669-71.994708 85.384669-110.442368L481.529011 458.580347c0-38.448684-36.426631-68.648496-85.384669-110.442368-30.109762-25.709545-87.207178-73.560366-87.207178-95.263667L308.937165 146.509818l406.099065 0 0 106.36347c0 21.707394-57.100486 69.555146-87.211271 95.263667-48.952922 41.794895-85.381599 71.994708-85.381599 110.442368l0 106.838284c0 38.448684 36.427654 68.648496 85.381599 110.442368 30.109762 25.709545 87.211271 73.556273 87.211271 95.263667l0 106.36347-406.099065 0L308.937165 771.125689zM603.358731 238.027162l0-20.662599c0-19.62599 15.907295-35.533284 35.533284-35.533284 19.62599 0 35.533284 15.908318 35.533284 35.533284l0 20.662599c0 19.62599-15.908318 35.533284-35.533284 35.533284C619.267049 273.560446 603.358731 257.652128 603.358731 238.027162z" p-id="9320"></path></svg>