<?xml version="1.0" standalone="no"?><!DOCTYPE svg PUBLIC "-//W3C//DTD SVG 1.1//EN" "http://www.w3.org/Graphics/SVG/1.1/DTD/svg11.dtd"><svg t="1545900870877" class="icon" style="" viewBox="0 0 1024 1024" version="1.1" xmlns="http://www.w3.org/2000/svg" p-id="2908" xmlns:xlink="http://www.w3.org/1999/xlink" width="200" height="200"><defs><style type="text/css"></style></defs><path d="M867.4 271.6h-91.1c12.6-25.3 17.7-55.7 15.2-83.5-2.5-35.4-15.2-65.8-37.9-83.5-15.2-12.6-38-20.2-63.2-20.2-48.1 0-101.2 25.3-141.7 68.3-17.7 17.7-27.8 35.4-37.9 50.6-10.1-17.7-22.8-35.4-38-50.6-43-43-96.1-68.3-141.7-68.3-25.3 0-45.5 7.6-63.2 20.2-22.8 17.7-35.4 48.1-38 83.5-2.5 27.8 2.5 55.7 15.2 83.5h-91.2c-48.1 0-88.5 40.5-88.5 91.1v40.5c0 45.5 35.4 86 78.4 91.1v293.5c0 83.5 65.8 151.8 149.3 151.8h437.7c81 0 149.3-68.3 149.3-151.8v-296c45.5-5.1 78.4-43 78.4-91.1v-40.5c-0.1-48.2-40.5-88.6-91.1-88.6z m-275.8-75.9c35.4-37.9 75.9-50.6 101.2-50.6 10.1 0 20.2 2.5 25.3 7.6 5.1 5.1 12.7 17.7 15.2 37.9 0 12.7 0 48.1-25.3 78.4H548.6c7.6-27.8 22.8-53.1 43-73.3zM288 190.6c0-20.2 7.6-32.9 15.2-37.9 5.1-5.1 15.2-7.6 25.3-7.6 25.3 0 63.2 12.7 101.2 50.6 20.2 20.2 35.4 45.5 43 73.4H313.3c-22.8-30.4-25.3-63.3-25.3-78.5zM123.5 403.1v-40.5c0-17.7 12.6-30.4 30.4-30.4h326.4v101.2H153.9c-17.7 0.1-30.4-15.1-30.4-30.3zM202 787.7V494.2h278.3v374.4c0 2.5 0 7.6 2.5 10.1H293.1c-50.6 0-91.1-43-91.1-91z m619.9 2.6c0 50.6-43.1 88.5-91.1 88.5H541c0-2.5 2.5-7.6 2.5-10.1V494.2h278.3v293.5l0.1 2.6z m75.9-387.2c0 17.7-12.6 30.4-30.4 30.4H541V332.3h326.4c15.2 0 30.4 12.7 30.4 30.4v40.4z" fill="" p-id="2909"></path></svg>