<?xml version="1.0" standalone="no"?><!DOCTYPE svg PUBLIC "-//W3C//DTD SVG 1.1//EN" "http://www.w3.org/Graphics/SVG/1.1/DTD/svg11.dtd"><svg t="1548841191465" class="icon" style="" viewBox="0 0 1024 1024" version="1.1" xmlns="http://www.w3.org/2000/svg" p-id="5468" xmlns:xlink="http://www.w3.org/1999/xlink" width="200" height="200"><defs><style type="text/css"></style></defs><path d="M684.8 344.6c0-16.8-13.6-30.4-30.4-30.4H265.8c-16.8 0-30.4 13.6-30.4 30.4S249 375 265.8 375h388.8c16.6 0 30.2-13.6 30.2-30.4zM265.8 444c-16.8 0-30.4 13.6-30.4 30.4s13.6 30.4 30.4 30.4h199.4c16.8 0 30.4-13.6 30.4-30.4S482 444 465.2 444H265.8z" p-id="5469"></path><path d="M475.3 710.5L320 802.3l-8.8-51.1c-4.9-28.1-29.2-48.8-57.9-48.8h-56.8c-9.3 0-18.1-3.6-24.8-10.4-6.7-6.7-10.4-15.5-10.4-24.8V221.7c0-9.3 3.6-18.1 10.4-24.8 6.7-6.7 15.5-10.4 24.8-10.4h611.8c9.3 0 18.1 3.6 24.8 10.4 6.7 6.7 10.4 15.5 10.4 24.8v169c0 16.2 13.1 29.4 29.4 29.4 16.2 0 29.4-13.1 29.4-29.4v-169c0-51.6-42.2-93.9-93.9-93.9H196.6c-51.6 0-93.9 42.2-93.9 93.9v445.6c0 51.6 42.2 93.9 93.9 93.9h56.8l23.2 135 228.5-135h29.8c16.2 0 29.4-13.1 29.4-29.4 0-16.2-13.1-29.4-29.4-29.4h-29.8c-10.5 0-20.8 2.9-29.8 8.1z" p-id="5470"></path><path d="M735.1 777.6c-30 0-58.7-7-85.3-20.8-8.1-4.2-12.6-13.2-11-22.2 0.4-2.3 0.6-4.6 0.6-6.5 0-19.2-15.6-34.7-34.7-34.7-2.7 0-5.4 0.3-7.8 0.8-9 2-18.2-2-22.8-9.9-14.8-25.5-23.3-54.6-24.6-84.3-0.4-9 5-17.3 13.5-20.5 2.5-1 4.4-1.8 5.9-2.7 0.1 0 0.2-0.1 0.2-0.1 8-4.6 13.8-12.1 16.2-21.1 2.4-8.9 1.2-18.2-3.4-26.2-1.4-2.3-3-4.5-4.9-6.6-6.2-6.8-7.2-16.8-2.6-24.7 14.9-25.5 35.9-47.4 60.6-63.3 7.9-5.1 18.3-4.3 25.3 2 1.1 1 2.8 2.2 4.9 3.4 16.5 9.5 37.8 3.8 47.4-12.8 0 0 0-0.1 0.1-0.1 1.3-2.2 2.3-4.5 3-6.9 2.7-8.9 10.8-14.9 20.1-14.9 30 0 58.7 7 85.3 20.8 8.1 4.2 12.6 13.2 11 22.2-0.4 2.3-0.6 4.6-0.6 6.5 0 19.2 15.6 34.7 34.7 34.7 2.7 0 5.4-0.3 7.8-0.8 9-2 18.2 2 22.8 10 14.8 25.6 23.3 54.7 24.6 84.3 0.4 9-5 17.3-13.5 20.5-2.5 1-4.4 1.8-5.9 2.7-0.1 0-0.2 0.1-0.2 0.1-8 4.6-13.8 12.1-16.2 21.1-2.4 8.9-1.2 18.2 3.4 26.2 1.4 2.3 3 4.5 4.9 6.6 6.2 6.8 7.2 16.8 2.6 24.7-14.9 25.5-35.9 47.4-60.6 63.3-7.9 5.1-18.3 4.3-25.3-2-1.1-1-2.8-2.2-4.9-3.4-16.5-9.5-37.8-3.8-47.4 12.8 0 0 0 0.1-0.1 0.1-1.3 2.2-2.3 4.5-3 6.9-2.7 8.7-10.8 14.8-20.1 14.8z m-53.7-52.4c12.9 5.3 26.4 8.5 40.4 9.8 0.1-0.1 0.2-0.3 0.3-0.4 20.7-35.7 66-48.6 102.1-29.5 10.9-8.5 20.6-18.7 28.7-30-0.1-0.1-0.1-0.2-0.2-0.3-10.3-17.7-13-38.4-7.7-58.2 5-18.9 16.8-34.8 33.2-45.1-1.9-13.9-5.8-27.3-11.6-40h-0.4c-41.3 0-75.1-32.8-76.7-73.7-12.9-5.3-26.4-8.5-40.4-9.8-0.1 0.1-0.2 0.3-0.2 0.4-10.3 17.7-26.8 30.4-46.6 35.7-18.8 5.1-38.5 2.9-55.6-6.2-10.9 8.5-20.6 18.7-28.7 30 0.1 0.1 0.1 0.2 0.2 0.3 10.3 17.7 13 38.4 7.7 58.2-5 18.8-16.8 34.7-33.2 45.1 1.9 13.8 5.8 27.3 11.6 40h0.4c41.3-0.1 75.1 32.7 76.7 73.7z m54-48.3c-47 0-85.2-38.2-85.2-85.2s38.2-85.2 85.2-85.2 85.2 38.2 85.2 85.2-38.2 85.2-85.2 85.2z m0-128.5c-23.8 0-43.2 19.4-43.2 43.2s19.4 43.2 43.2 43.2 43.2-19.4 43.2-43.2-19.4-43.2-43.2-43.2z" p-id="5471"></path></svg>